<?xml version="1.0" encoding="UTF-8" standalone="no"?>
<!-- Created with Inkscape (http://www.inkscape.org/) -->

<svg
   xmlns:dc="http://purl.org/dc/elements/1.1/"
   xmlns:cc="http://creativecommons.org/ns#"
   xmlns:rdf="http://www.w3.org/1999/02/22-rdf-syntax-ns#"
   xmlns:svg="http://www.w3.org/2000/svg"
   xmlns="http://www.w3.org/2000/svg"
   xmlns:sodipodi="http://sodipodi.sourceforge.net/DTD/sodipodi-0.dtd"
   xmlns:inkscape="http://www.inkscape.org/namespaces/inkscape"
   width="210mm"
   height="297mm"
   viewBox="0 0 210 297"
   version="1.1"
   id="svg8"
   inkscape:version="0.92.3 (2405546, 2018-03-11)"
   sodipodi:docname="hierarchical_domains.svg">
  <sodipodi:namedview
     id="base"
     pagecolor="#ffffff"
     bordercolor="#666666"
     borderopacity="1.0"
     inkscape:pageopacity="0.0"
     inkscape:pageshadow="2"
     inkscape:zoom="1.979899"
     inkscape:cx="387.98063"
     inkscape:cy="874.30994"
     inkscape:document-units="mm"
     inkscape:current-layer="layer1"
     showgrid="false"
     inkscape:window-width="2493"
     inkscape:window-height="1376"
     inkscape:window-x="67"
     inkscape:window-y="27"
     inkscape:window-maximized="1" />
  <defs
     id="defs2" />
  <metadata
     id="metadata5">
    <rdf:RDF>
      <cc:Work
         rdf:about="">
        <dc:format>image/svg+xml</dc:format>
        <dc:type
           rdf:resource="http://purl.org/dc/dcmitype/StillImage" />
        <dc:title></dc:title>
      </cc:Work>
    </rdf:RDF>
  </metadata>
  <g
     id="layer1"
     inkscape:groupmode="layer"
     inkscape:label="Layer 1">
    <ellipse
       transform="rotate(-143.74513)"
       ry="7.2345119"
       rx="21.396675"
       cy="21.758381"
       cx="-95.928978"
       id="path815"
       style="opacity:1;fill:#ffeeaa;fill-opacity:0.56078384;stroke:#000000;stroke-width:0.18774323;stroke-linecap:round;stroke-linejoin:round;stroke-miterlimit:4;stroke-dasharray:none;stroke-dashoffset:0;stroke-opacity:1" />
    <ellipse
       transform="rotate(2.1174835)"
       ry="5.3018312"
       rx="21.396675"
       cy="58.595261"
       cx="65.541847"
       id="path815-3"
       style="opacity:1;fill:#ffeeaa;fill-opacity:0.56078384;stroke:#000000;stroke-width:0.18774323;stroke-linecap:round;stroke-linejoin:round;stroke-miterlimit:4;stroke-dasharray:none;stroke-dashoffset:0;stroke-opacity:1" />
    <ellipse
       transform="rotate(-44.118243)"
       ry="5.3018312"
       rx="21.396675"
       cy="110.68032"
       cx="60.521671"
       id="path815-3-6"
       style="opacity:1;fill:#e0ffaa;fill-opacity:0.56078384;stroke:#000000;stroke-width:0.18774323;stroke-linecap:round;stroke-linejoin:round;stroke-miterlimit:4;stroke-dasharray:none;stroke-dashoffset:0;stroke-opacity:1" />
    <ellipse
       transform="rotate(11.813733)"
       ry="5.3018312"
       rx="21.396677"
       cy="34.646111"
       cx="154.70622"
       id="path815-3-6-7"
       style="opacity:1;fill:#e0ffaa;fill-opacity:0.56078384;stroke:#000000;stroke-width:0.18774323;stroke-linecap:round;stroke-linejoin:round;stroke-miterlimit:4;stroke-dasharray:none;stroke-dashoffset:0;stroke-opacity:1" />
    <ellipse
       transform="rotate(-10.243125)"
       ry="5.3018312"
       rx="21.396677"
       cy="81.342705"
       cx="132.20476"
       id="path815-3-6-7-5"
       style="opacity:1;fill:#e0ffaa;fill-opacity:0.56078384;stroke:#000000;stroke-width:0.18774323;stroke-linecap:round;stroke-linejoin:round;stroke-miterlimit:4;stroke-dasharray:none;stroke-dashoffset:0;stroke-opacity:1" />
    <ellipse
       transform="rotate(0.38812023)"
       ry="21.67712"
       rx="21.396675"
       cy="61.549007"
       cx="91.023132"
       id="path815-3-3"
       style="opacity:1;fill:#ffd943;fill-opacity:0.56078384;stroke:#000000;stroke-width:0.18774323;stroke-linecap:round;stroke-linejoin:round;stroke-miterlimit:4;stroke-dasharray:none;stroke-dashoffset:0;stroke-opacity:1" />
    <ellipse
       transform="rotate(0.38812019)"
       ry="21.67712"
       rx="21.396675"
       cy="59.918468"
       cx="120.91122"
       id="path815-3-3-5"
       style="opacity:1;fill:#bcff3f;fill-opacity:0.56078419;stroke:#000000;stroke-width:0.18774323;stroke-linecap:round;stroke-linejoin:round;stroke-miterlimit:4;stroke-dasharray:none;stroke-dashoffset:0;stroke-opacity:1" />
    <text
       id="text912"
       y="201.85204"
       x="76.30545"
       style="font-style:normal;font-variant:normal;font-weight:normal;font-stretch:normal;font-size:10.58333302px;line-height:1.25;font-family:monospace;-inkscape-font-specification:monospace;letter-spacing:0px;word-spacing:0px;fill:#000000;fill-opacity:1;stroke:none;stroke-width:0.26458332"
       xml:space="preserve"><tspan
         style="stroke-width:0.26458332"
         y="211.21581"
         x="76.30545"
         id="tspan910"
         sodipodi:role="line" /></text>
    <g
       id="g931"
       transform="matrix(0.70846504,0,0,0.70846504,20.605712,-5.1279815)">
      <g
         word-spacing="normal"
         letter-spacing="normal"
         font-size-adjust="none"
         font-stretch="normal"
         font-weight="normal"
         font-variant="normal"
         font-style="normal"
         stroke-miterlimit="10.433"
         xml:space="preserve"
         transform="matrix(0.3,0,0,-0.3,-52.5,222.75)"
         id="content"
         style="font-style:normal;font-variant:normal;font-weight:normal;font-stretch:normal;letter-spacing:normal;word-spacing:normal;text-anchor:start;fill:none;fill-opacity:1;fill-rule:evenodd;stroke:#000000;stroke-linecap:butt;stroke-linejoin:miter;stroke-miterlimit:10.43299961;stroke-dasharray:none;stroke-dashoffset:0;stroke-opacity:1"><path
           id="path926"
           d="m 465.68,406.2 0.25,2.73 c 5.68,13.91 6.73,22.58 7.43,28.55 3.33,0 16.08,0 16.08,-10.95 0,-9.77 -8.76,-17.6 -20.81,-17.6 h -2.7 l -0.25,-2.73 c 11.61,0 28,8.87 28,22.47 0,4.44 -2.08,7.22 -4.54,8.76 -4.28,2.8 -8.85,2.8 -13.59,2.8 -4.28,0 -7.23,0 -11.41,-1.8 -6.62,-2.93 -7.57,-7.07 -7.57,-7.47 0,-0.29 0.2,-0.4 0.5,-0.4 0.79,0 1.93,0.7 2.34,0.95 1.05,0.69 1.19,1 1.48,1.94 0.71,2 2.1,3.73 8.38,4.03 -0.8,-10.41 -3.34,-19.92 -6.83,-28.64 -1.84,-0.64 -3.03,-1.8 -3.03,-2.3 0,-0.29 0.05,-0.34 1.14,-0.34 z"
           inkscape:connector-curvature="0"
           style="fill:#000000;stroke-width:0" /><path
           id="path928"
           d="m 501.09,402.95 -0.11,-0.18 -0.11,-0.16 -0.12,-0.17 -0.11,-0.15 -0.11,-0.16 -0.12,-0.14 -0.11,-0.14 -0.12,-0.14 -0.11,-0.13 -0.12,-0.12 -0.12,-0.12 -0.12,-0.11 -0.12,-0.11 -0.12,-0.11 -0.13,-0.09 -0.13,-0.1 -0.13,-0.08 -0.13,-0.09 -0.13,-0.07 -0.14,-0.08 -0.14,-0.06 -0.15,-0.07 -0.15,-0.05 -0.15,-0.06 -0.16,-0.04 -0.16,-0.05 -0.17,-0.04 -0.17,-0.03 -0.17,-0.03 -0.18,-0.02 -0.19,-0.02 -0.19,-0.02 c -0.34,-0.03 -0.79,-0.03 -0.79,-0.73 0,-0.38 0.31,-0.52 0.48,-0.52 0.91,0 2.06,0.14 3,0.14 1.11,0 2.55,-0.14 3.59,-0.14 0.18,0 0.69,0 0.69,0.77 0,0.45 -0.45,0.48 -0.58,0.48 -0.28,0.05 -1.54,0.11 -1.54,1.05 0,0.42 0.36,1.01 0.53,1.33 l 2.78,4.31 h 9.97 l -0.17,1.26 h -8.96 l 7.32,11.4 1.64,-11.4 0.17,-1.26 0.84,-5.78 c -0.14,-0.35 -0.36,-0.91 -2.4,-0.91 -0.43,0 -0.91,0 -0.91,-0.76 0,-0.14 0.09,-0.49 0.55,-0.49 1.01,0 3.48,0.14 4.5,0.14 0.62,0 1.42,-0.03 2.06,-0.03 0.62,-0.05 1.36,-0.11 1.98,-0.11 0.46,0 0.69,0.28 0.69,0.74 0,0.51 -0.41,0.51 -0.97,0.51 -2.01,0 -2.09,0.28 -2.2,1.13 l -3.06,21.5 c -0.11,0.72 -0.18,0.97 -0.83,0.97 -0.67,0 -0.88,-0.32 -1.19,-0.8 z"
           inkscape:connector-curvature="0"
           style="fill:#000000;stroke-width:0" /></g>    </g>
    <g
       transform="matrix(0.70846504,0,0,0.70846504,55.149708,-4.7263115)"
       id="g973">
      <g
         style="font-style:normal;font-variant:normal;font-weight:normal;font-stretch:normal;letter-spacing:normal;word-spacing:normal;text-anchor:start;fill:none;fill-opacity:1;fill-rule:evenodd;stroke:#000000;stroke-linecap:butt;stroke-linejoin:miter;stroke-miterlimit:10.43299961;stroke-dasharray:none;stroke-dashoffset:0;stroke-opacity:1"
         id="g971"
         transform="matrix(0.3,0,0,-0.3,-52.5,222.75)"
         xml:space="preserve"
         stroke-miterlimit="10.433"
         font-style="normal"
         font-variant="normal"
         font-weight="normal"
         font-stretch="normal"
         font-size-adjust="none"
         letter-spacing="normal"
         word-spacing="normal"><path
           style="fill:#000000;stroke-width:0"
           inkscape:connector-curvature="0"
           d="m 465.68,406.2 0.25,2.73 c 5.68,13.91 6.73,22.58 7.43,28.55 3.33,0 16.08,0 16.08,-10.95 0,-9.77 -8.76,-17.6 -20.81,-17.6 h -2.7 l -0.25,-2.73 c 11.61,0 28,8.87 28,22.47 0,4.44 -2.08,7.22 -4.54,8.76 -4.28,2.8 -8.85,2.8 -13.59,2.8 -4.28,0 -7.23,0 -11.41,-1.8 -6.62,-2.93 -7.57,-7.07 -7.57,-7.47 0,-0.29 0.2,-0.4 0.5,-0.4 0.79,0 1.93,0.7 2.34,0.95 1.05,0.69 1.19,1 1.48,1.94 0.71,2 2.1,3.73 8.38,4.03 -0.8,-10.41 -3.34,-19.92 -6.83,-28.64 -1.84,-0.64 -3.03,-1.8 -3.03,-2.3 0,-0.29 0.05,-0.34 1.14,-0.34 z"
           id="path967" /><path
           style="fill:#000000;stroke-width:0"
           inkscape:connector-curvature="0"
           d="m 500.55,401.48 -0.03,-0.11 -0.03,-0.1 -0.03,-0.1 -0.02,-0.09 -0.03,-0.09 -0.03,-0.09 -0.03,-0.08 -0.04,-0.07 -0.03,-0.07 -0.04,-0.07 -0.05,-0.06 -0.05,-0.06 -0.05,-0.05 -0.06,-0.05 -0.06,-0.05 -0.07,-0.04 -0.08,-0.04 -0.08,-0.03 -0.1,-0.04 -0.1,-0.03 -0.11,-0.02 -0.06,-0.02 -0.06,-0.01 -0.06,-0.01 -0.07,-0.01 -0.07,-0.01 -0.07,-0.01 h -0.08 l -0.07,-0.01 -0.08,-0.01 h -0.09 l -0.08,-0.01 -0.09,-0.01 h -0.09 -0.1 l -0.1,-0.01 h -0.1 -0.11 -0.11 l -0.11,-0.01 h -0.12 -0.12 -0.12 c -0.58,0 -1.03,0 -1.03,-0.73 0,-0.52 0.4,-0.52 1.03,-0.52 h 13.48 c 5.86,0 10.36,4 10.36,7.45 0,2.49 -2.26,4.61 -5.97,4.99 4.22,0.76 7.75,3.42 7.75,6.41 0,2.65 -2.68,4.95 -7.21,4.95 l -0.57,-1.25 c 3.57,0 4.36,-2.35 4.36,-3.66 0,-2.83 -3.17,-6.03 -7.84,-6.03 h -5.71 l -0.24,-0.98 h 7.39 c 3.26,0 4.53,-2.16 4.53,-4.18 0,-3.45 -3.53,-6.45 -7.74,-6.45 h -5.62 c -1.08,0 -1.11,0.05 -1.11,0.36 0,0.03 0,0.2 0.14,0.72 l 2.41,9.55 0.24,0.98 2.13,8.5 c 0.27,1.08 0.31,1.19 1.77,1.19 h 5.29 l 0.57,1.25 h -12.69 c -0.66,0 -1.11,0 -1.11,-0.77 0,-0.48 0.42,-0.48 1.11,-0.48 0.03,0 0.7,0 1.33,-0.08 0.73,-0.06 0.79,-0.14 0.79,-0.48 0,-0.07 0,-0.24 -0.14,-0.77 z"
           id="path969" /></g>    </g>
    <ellipse
       ry="53.489639"
       rx="75.782562"
       cy="69.185463"
       cx="107.63516"
       id="path1504"
       style="opacity:1;fill:#ffffff;fill-opacity:0;stroke:#000000;stroke-width:0.18774323;stroke-linecap:round;stroke-linejoin:round;stroke-miterlimit:4;stroke-dasharray:none;stroke-dashoffset:0;stroke-opacity:1" />
    <g
       transform="matrix(0.38932975,0,0,0.38932975,25.161335,23.23561)"
       id="g2209">
      <g
         style="font-style:normal;font-variant:normal;font-weight:normal;font-stretch:normal;letter-spacing:normal;word-spacing:normal;text-anchor:start;fill:none;fill-opacity:1;fill-rule:evenodd;stroke:#000000;stroke-linecap:butt;stroke-linejoin:miter;stroke-miterlimit:10.43299961;stroke-dasharray:none;stroke-dashoffset:0;stroke-opacity:1"
         id="g2207"
         transform="matrix(0.3,0,0,-0.3,-52.5,222.75)"
         xml:space="preserve"
         stroke-miterlimit="10.433"
         font-style="normal"
         font-variant="normal"
         font-weight="normal"
         font-stretch="normal"
         font-size-adjust="none"
         letter-spacing="normal"
         word-spacing="normal"><path
           style="fill:#000000;stroke-width:0"
           inkscape:connector-curvature="0"
           d="m 465.68,406.2 0.25,2.73 c 5.68,13.91 6.73,22.58 7.43,28.55 3.33,0 16.08,0 16.08,-10.95 0,-9.77 -8.76,-17.6 -20.81,-17.6 h -2.7 l -0.25,-2.73 c 11.61,0 28,8.87 28,22.47 0,4.44 -2.08,7.22 -4.54,8.76 -4.28,2.8 -8.85,2.8 -13.59,2.8 -4.28,0 -7.23,0 -11.41,-1.8 -6.62,-2.93 -7.57,-7.07 -7.57,-7.47 0,-0.29 0.2,-0.4 0.5,-0.4 0.79,0 1.93,0.7 2.34,0.95 1.05,0.69 1.19,1 1.48,1.94 0.71,2 2.1,3.73 8.38,4.03 -0.8,-10.41 -3.34,-19.92 -6.83,-28.64 -1.84,-0.64 -3.03,-1.8 -3.03,-2.3 0,-0.29 0.05,-0.34 1.14,-0.34 z"
           id="path2201" /><path
           style="fill:#000000;stroke-width:0"
           inkscape:connector-curvature="0"
           d="m 521.52,405.37 0.01,0.02 0.01,0.02 0.01,0.02 v 0.02 l 0.01,0.02 0.01,0.02 0.01,0.01 0.01,0.02 0.01,0.02 v 0.02 l 0.02,0.03 0.01,0.03 0.01,0.03 0.01,0.03 0.01,0.03 0.01,0.02 0.01,0.03 0.01,0.02 0.01,0.02 v 0.02 l 0.01,0.02 v 0.02 l 0.01,0.01 v 0.02 0.01 l 0.01,0.01 v 0.01 0.02 0 0.01 0.01 0.01 0 0.01 0 0.01 0 c 0,0.22 -0.14,0.5 -0.59,0.5 -0.08,0 -0.25,0 -0.39,-0.14 -0.06,-0.08 -0.11,-0.11 -0.52,-1.01 -2.26,-5.02 -4.04,-6.77 -9.73,-6.77 h -5.92 c -1.08,0 -1.11,0.05 -1.11,0.36 0,0.03 0,0.2 0.14,0.72 l 2.33,9.34 h 3.9 c 2.75,0 3.18,-0.45 3.18,-1.61 0,-0.37 -0.11,-0.97 -0.25,-1.56 -0.1,-0.31 -0.1,-0.34 -0.1,-0.42 0,-0.06 0.03,-0.49 0.6,-0.49 0.48,0 0.51,0.18 0.65,0.77 l 1.92,7.64 c 0.1,0.41 0.1,0.48 0.1,0.52 0,0.34 -0.27,0.48 -0.6,0.48 -0.45,0 -0.48,-0.17 -0.68,-0.91 -0.74,-2.71 -1.78,-3.17 -4.74,-3.17 h -3.67 l 2.09,8.3 c 0.28,1.08 0.32,1.19 1.78,1.19 h 5.68 c 4.58,0 5.72,-0.94 5.72,-4.05 0,-0.91 -0.14,-1.95 -0.14,-2.13 0,-0.28 0.1,-0.59 0.59,-0.59 0.53,0 0.56,0.31 0.62,0.91 l 0.63,6.06 c 0.11,1.05 -0.13,1.05 -1,1.05 h -19.17 c -0.69,0 -1.11,0 -1.11,-0.77 0,-0.48 0.37,-0.48 1.15,-0.48 0.55,0 0.69,0 1.32,-0.08 0.7,-0.06 0.76,-0.13 0.76,-0.49 0,-0.23 -0.09,-0.59 -0.14,-0.76 l -4.56,-18.22 c -0.35,-1.36 -0.38,-1.61 -3.09,-1.61 -0.63,0 -1.05,0 -1.05,-0.77 0,-0.48 0.42,-0.48 1.05,-0.48 h 19.68 c 0.86,0 0.91,0 1.19,0.63 z"
           id="path2203" /><path
           style="fill:#000000;stroke-width:0"
           inkscape:connector-curvature="0"
           d="m 535.04,423.12 v 0.04 0.03 0.04 0.03 0.03 0.03 0.03 0.02 0.03 l -0.01,0.02 v 0.03 0.02 0.03 l -0.01,0.02 v 0.02 0.02 l -0.01,0.02 v 0.02 l -0.01,0.03 -0.01,0.03 -0.02,0.03 -0.01,0.03 -0.02,0.02 -0.02,0.02 -0.02,0.02 -0.02,0.02 -0.03,0.01 -0.03,0.01 -0.03,0.02 h -0.04 l -0.04,0.01 -0.04,0.01 h -0.02 -0.02 l -0.03,0.01 h -0.02 -0.03 -0.02 -0.03 -0.03 -0.03 -0.03 -0.03 -0.03 -0.03 -0.04 -0.03 -0.04 -0.03 l -0.04,0.01 c -1.77,-1.6 -4.54,-1.6 -5.04,-1.6 h -0.42 v -1.09 h 0.42 c 0.58,0 2.19,0.06 3.65,0.69 v -12.46 c 0,-0.76 0,-1.04 -2.65,-1.04 h -1.25 v -1.1 c 1.38,0.1 3.6,0.1 5.04,0.1 1.45,0 3.67,0 5.03,-0.1 v 1.1 h -1.24 c -2.64,0 -2.64,0.28 -2.64,1.04 z"
           id="path2205" /></g>    </g>
    <g
       transform="matrix(0.38932975,0,0,0.38932975,46.472686,-4.5433815)"
       id="g2459">
      <g
         style="font-style:normal;font-variant:normal;font-weight:normal;font-stretch:normal;letter-spacing:normal;word-spacing:normal;text-anchor:start;fill:none;fill-opacity:1;fill-rule:evenodd;stroke:#000000;stroke-linecap:butt;stroke-linejoin:miter;stroke-miterlimit:10.43299961;stroke-dasharray:none;stroke-dashoffset:0;stroke-opacity:1"
         id="g2457"
         transform="matrix(0.3,0,0,-0.3,-52.5,222.75)"
         xml:space="preserve"
         stroke-miterlimit="10.433"
         font-style="normal"
         font-variant="normal"
         font-weight="normal"
         font-stretch="normal"
         font-size-adjust="none"
         letter-spacing="normal"
         word-spacing="normal"><path
           style="fill:#000000;stroke-width:0"
           inkscape:connector-curvature="0"
           d="m 465.68,406.2 0.25,2.73 c 5.68,13.91 6.73,22.58 7.43,28.55 3.33,0 16.08,0 16.08,-10.95 0,-9.77 -8.76,-17.6 -20.81,-17.6 h -2.7 l -0.25,-2.73 c 11.61,0 28,8.87 28,22.47 0,4.44 -2.08,7.22 -4.54,8.76 -4.28,2.8 -8.85,2.8 -13.59,2.8 -4.28,0 -7.23,0 -11.41,-1.8 -6.62,-2.93 -7.57,-7.07 -7.57,-7.47 0,-0.29 0.2,-0.4 0.5,-0.4 0.79,0 1.93,0.7 2.34,0.95 1.05,0.69 1.19,1 1.48,1.94 0.71,2 2.1,3.73 8.38,4.03 -0.8,-10.41 -3.34,-19.92 -6.83,-28.64 -1.84,-0.64 -3.03,-1.8 -3.03,-2.3 0,-0.29 0.05,-0.34 1.14,-0.34 z"
           id="path2451" /><path
           style="fill:#000000;stroke-width:0"
           inkscape:connector-curvature="0"
           d="m 521.52,405.37 0.01,0.02 0.01,0.02 0.01,0.02 v 0.02 l 0.01,0.02 0.01,0.02 0.01,0.01 0.01,0.02 0.01,0.02 v 0.02 l 0.02,0.03 0.01,0.03 0.01,0.03 0.01,0.03 0.01,0.03 0.01,0.02 0.01,0.03 0.01,0.02 0.01,0.02 v 0.02 l 0.01,0.02 v 0.02 l 0.01,0.01 v 0.02 0.01 l 0.01,0.01 v 0.01 0.02 0 0.01 0.01 0.01 0 0.01 0 0.01 0 c 0,0.22 -0.14,0.5 -0.59,0.5 -0.08,0 -0.25,0 -0.39,-0.14 -0.06,-0.08 -0.11,-0.11 -0.52,-1.01 -2.26,-5.02 -4.04,-6.77 -9.73,-6.77 h -5.92 c -1.08,0 -1.11,0.05 -1.11,0.36 0,0.03 0,0.2 0.14,0.72 l 2.33,9.34 h 3.9 c 2.75,0 3.18,-0.45 3.18,-1.61 0,-0.37 -0.11,-0.97 -0.25,-1.56 -0.1,-0.31 -0.1,-0.34 -0.1,-0.42 0,-0.06 0.03,-0.49 0.6,-0.49 0.48,0 0.51,0.18 0.65,0.77 l 1.92,7.64 c 0.1,0.41 0.1,0.48 0.1,0.52 0,0.34 -0.27,0.48 -0.6,0.48 -0.45,0 -0.48,-0.17 -0.68,-0.91 -0.74,-2.71 -1.78,-3.17 -4.74,-3.17 h -3.67 l 2.09,8.3 c 0.28,1.08 0.32,1.19 1.78,1.19 h 5.68 c 4.58,0 5.72,-0.94 5.72,-4.05 0,-0.91 -0.14,-1.95 -0.14,-2.13 0,-0.28 0.1,-0.59 0.59,-0.59 0.53,0 0.56,0.31 0.62,0.91 l 0.63,6.06 c 0.11,1.05 -0.13,1.05 -1,1.05 h -19.17 c -0.69,0 -1.11,0 -1.11,-0.77 0,-0.48 0.37,-0.48 1.15,-0.48 0.55,0 0.69,0 1.32,-0.08 0.7,-0.06 0.76,-0.13 0.76,-0.49 0,-0.23 -0.09,-0.59 -0.14,-0.76 l -4.56,-18.22 c -0.35,-1.36 -0.38,-1.61 -3.09,-1.61 -0.63,0 -1.05,0 -1.05,-0.77 0,-0.48 0.42,-0.48 1.05,-0.48 h 19.68 c 0.86,0 0.91,0 1.19,0.63 z"
           id="path2453" /><path
           style="fill:#000000;stroke-width:0"
           inkscape:connector-curvature="0"
           d="m 539.79,412.09 h -1.04 c -0.08,-0.48 -0.33,-2.01 -0.72,-2.26 -0.21,-0.16 -2.3,-0.16 -2.68,-0.16 h -4.87 c 1.64,1.22 3.49,2.61 4.99,3.61 2.23,1.55 4.32,3 4.32,5.64 0,3.19 -3.01,4.96 -6.57,4.96 -3.37,0 -5.83,-1.96 -5.83,-4.4 0,-1.29 1.09,-1.51 1.45,-1.51 0.67,0 1.47,0.45 1.47,1.47 0,0.89 -0.66,1.39 -1.42,1.47 0.68,1.12 2.14,1.87 3.81,1.87 2.4,0 4.42,-1.45 4.42,-3.89 0,-2.09 -1.44,-3.69 -3.36,-5.31 l -6.08,-5.16 c -0.25,-0.22 -0.26,-0.22 -0.29,-0.39 v -0.75 h 11.58 z"
           id="path2455" /></g>    </g>
    <g
       id="g2588"
       transform="matrix(0.38932975,0,0,0.38932975,86.122464,-4.1201115)">
      <g
         word-spacing="normal"
         letter-spacing="normal"
         font-size-adjust="none"
         font-stretch="normal"
         font-weight="normal"
         font-variant="normal"
         font-style="normal"
         stroke-miterlimit="10.433"
         xml:space="preserve"
         transform="matrix(0.3,0,0,-0.3,-52.5,222.75)"
         id="g2586"
         style="font-style:normal;font-variant:normal;font-weight:normal;font-stretch:normal;letter-spacing:normal;word-spacing:normal;text-anchor:start;fill:none;fill-opacity:1;fill-rule:evenodd;stroke:#000000;stroke-linecap:butt;stroke-linejoin:miter;stroke-miterlimit:10.43299961;stroke-dasharray:none;stroke-dashoffset:0;stroke-opacity:1"><path
           id="path2580"
           d="m 465.68,406.2 0.25,2.73 c 5.68,13.91 6.73,22.58 7.43,28.55 3.33,0 16.08,0 16.08,-10.95 0,-9.77 -8.76,-17.6 -20.81,-17.6 h -2.7 l -0.25,-2.73 c 11.61,0 28,8.87 28,22.47 0,4.44 -2.08,7.22 -4.54,8.76 -4.28,2.8 -8.85,2.8 -13.59,2.8 -4.28,0 -7.23,0 -11.41,-1.8 -6.62,-2.93 -7.57,-7.07 -7.57,-7.47 0,-0.29 0.2,-0.4 0.5,-0.4 0.79,0 1.93,0.7 2.34,0.95 1.05,0.69 1.19,1 1.48,1.94 0.71,2 2.1,3.73 8.38,4.03 -0.8,-10.41 -3.34,-19.92 -6.83,-28.64 -1.84,-0.64 -3.03,-1.8 -3.03,-2.3 0,-0.29 0.05,-0.34 1.14,-0.34 z"
           inkscape:connector-curvature="0"
           style="fill:#000000;stroke-width:0" /><path
           id="path2582"
           d="m 521.52,405.37 0.01,0.02 0.01,0.02 0.01,0.02 v 0.02 l 0.01,0.02 0.01,0.02 0.01,0.01 0.01,0.02 0.01,0.02 v 0.02 l 0.02,0.03 0.01,0.03 0.01,0.03 0.01,0.03 0.01,0.03 0.01,0.02 0.01,0.03 0.01,0.02 0.01,0.02 v 0.02 l 0.01,0.02 v 0.02 l 0.01,0.01 v 0.02 0.01 l 0.01,0.01 v 0.01 0.02 0 0.01 0.01 0.01 0 0.01 0 0.01 0 c 0,0.22 -0.14,0.5 -0.59,0.5 -0.08,0 -0.25,0 -0.39,-0.14 -0.06,-0.08 -0.11,-0.11 -0.52,-1.01 -2.26,-5.02 -4.04,-6.77 -9.73,-6.77 h -5.92 c -1.08,0 -1.11,0.05 -1.11,0.36 0,0.03 0,0.2 0.14,0.72 l 2.33,9.34 h 3.9 c 2.75,0 3.18,-0.45 3.18,-1.61 0,-0.37 -0.11,-0.97 -0.25,-1.56 -0.1,-0.31 -0.1,-0.34 -0.1,-0.42 0,-0.06 0.03,-0.49 0.6,-0.49 0.48,0 0.51,0.18 0.65,0.77 l 1.92,7.64 c 0.1,0.41 0.1,0.48 0.1,0.52 0,0.34 -0.27,0.48 -0.6,0.48 -0.45,0 -0.48,-0.17 -0.68,-0.91 -0.74,-2.71 -1.78,-3.17 -4.74,-3.17 h -3.67 l 2.09,8.3 c 0.28,1.08 0.32,1.19 1.78,1.19 h 5.68 c 4.58,0 5.72,-0.94 5.72,-4.05 0,-0.91 -0.14,-1.95 -0.14,-2.13 0,-0.28 0.1,-0.59 0.59,-0.59 0.53,0 0.56,0.31 0.62,0.91 l 0.63,6.06 c 0.11,1.05 -0.13,1.05 -1,1.05 h -19.17 c -0.69,0 -1.11,0 -1.11,-0.77 0,-0.48 0.37,-0.48 1.15,-0.48 0.55,0 0.69,0 1.32,-0.08 0.7,-0.06 0.76,-0.13 0.76,-0.49 0,-0.23 -0.09,-0.59 -0.14,-0.76 l -4.56,-18.22 c -0.35,-1.36 -0.38,-1.61 -3.09,-1.61 -0.63,0 -1.05,0 -1.05,-0.77 0,-0.48 0.42,-0.48 1.05,-0.48 h 19.68 c 0.86,0 0.91,0 1.19,0.63 z"
           inkscape:connector-curvature="0"
           style="fill:#000000;stroke-width:0" /><path
           id="path2584"
           d="m 533.34,415.53 h 0.21 l 0.21,-0.02 0.2,-0.02 0.2,-0.02 0.2,-0.04 0.18,-0.05 0.19,-0.05 0.17,-0.06 0.18,-0.07 0.16,-0.07 0.16,-0.09 0.16,-0.09 0.14,-0.1 0.14,-0.1 0.14,-0.12 0.13,-0.12 0.12,-0.13 0.11,-0.13 0.11,-0.14 0.1,-0.15 0.09,-0.16 0.09,-0.16 0.08,-0.17 0.07,-0.18 0.06,-0.18 0.06,-0.19 0.04,-0.2 0.04,-0.2 0.03,-0.21 0.02,-0.22 0.02,-0.22 v -0.23 c 0,-2.55 -1.56,-3.89 -3.78,-3.89 -0.28,0 -3.25,0 -4.52,1.3 1.04,0.15 1.33,0.92 1.33,1.51 0,0.92 -0.7,1.53 -1.53,1.53 -0.8,0 -1.53,-0.53 -1.53,-1.57 0,-2.6 2.94,-3.79 6.31,-3.79 4.1,0 6.64,2.47 6.64,4.88 0,2.05 -1.82,3.8 -4.67,4.44 3,0.97 3.8,2.87 3.8,4.26 0,2.05 -2.55,3.57 -5.69,3.57 -3.06,0 -5.53,-1.3 -5.53,-3.55 0,-1.17 0.95,-1.47 1.42,-1.47 0.72,0 1.42,0.53 1.42,1.42 0,0.58 -0.29,1.28 -1.18,1.42 1.06,1.14 3.28,1.22 3.79,1.22 1.83,0 3.13,-0.92 3.13,-2.61 0,-1.45 -0.96,-3.72 -3.56,-3.86 -0.71,-0.03 -0.8,-0.04 -1.46,-0.07 -0.26,-0.04 -0.54,-0.05 -0.54,-0.43 0,-0.42 0.25,-0.42 0.7,-0.42 z"
           inkscape:connector-curvature="0"
           style="fill:#000000;stroke-width:0" /></g>    </g>
    <g
       transform="matrix(0.38932975,0,0,0.38932975,112.11234,17.209668)"
       id="g2722">
      <g
         style="font-style:normal;font-variant:normal;font-weight:normal;font-stretch:normal;letter-spacing:normal;word-spacing:normal;text-anchor:start;fill:none;fill-opacity:1;fill-rule:evenodd;stroke:#000000;stroke-linecap:butt;stroke-linejoin:miter;stroke-miterlimit:10.43299961;stroke-dasharray:none;stroke-dashoffset:0;stroke-opacity:1"
         id="g2720"
         transform="matrix(0.3,0,0,-0.3,-52.5,222.75)"
         xml:space="preserve"
         stroke-miterlimit="10.433"
         font-style="normal"
         font-variant="normal"
         font-weight="normal"
         font-stretch="normal"
         font-size-adjust="none"
         letter-spacing="normal"
         word-spacing="normal"><path
           style="fill:#000000;stroke-width:0"
           inkscape:connector-curvature="0"
           d="m 465.68,406.2 0.25,2.73 c 5.68,13.91 6.73,22.58 7.43,28.55 3.33,0 16.08,0 16.08,-10.95 0,-9.77 -8.76,-17.6 -20.81,-17.6 h -2.7 l -0.25,-2.73 c 11.61,0 28,8.87 28,22.47 0,4.44 -2.08,7.22 -4.54,8.76 -4.28,2.8 -8.85,2.8 -13.59,2.8 -4.28,0 -7.23,0 -11.41,-1.8 -6.62,-2.93 -7.57,-7.07 -7.57,-7.47 0,-0.29 0.2,-0.4 0.5,-0.4 0.79,0 1.93,0.7 2.34,0.95 1.05,0.69 1.19,1 1.48,1.94 0.71,2 2.1,3.73 8.38,4.03 -0.8,-10.41 -3.34,-19.92 -6.83,-28.64 -1.84,-0.64 -3.03,-1.8 -3.03,-2.3 0,-0.29 0.05,-0.34 1.14,-0.34 z"
           id="path2714" /><path
           style="fill:#000000;stroke-width:0"
           inkscape:connector-curvature="0"
           d="m 521.52,405.37 0.01,0.02 0.01,0.02 0.01,0.02 v 0.02 l 0.01,0.02 0.01,0.02 0.01,0.01 0.01,0.02 0.01,0.02 v 0.02 l 0.02,0.03 0.01,0.03 0.01,0.03 0.01,0.03 0.01,0.03 0.01,0.02 0.01,0.03 0.01,0.02 0.01,0.02 v 0.02 l 0.01,0.02 v 0.02 l 0.01,0.01 v 0.02 0.01 l 0.01,0.01 v 0.01 0.02 0 0.01 0.01 0.01 0 0.01 0 0.01 0 c 0,0.22 -0.14,0.5 -0.59,0.5 -0.08,0 -0.25,0 -0.39,-0.14 -0.06,-0.08 -0.11,-0.11 -0.52,-1.01 -2.26,-5.02 -4.04,-6.77 -9.73,-6.77 h -5.92 c -1.08,0 -1.11,0.05 -1.11,0.36 0,0.03 0,0.2 0.14,0.72 l 2.33,9.34 h 3.9 c 2.75,0 3.18,-0.45 3.18,-1.61 0,-0.37 -0.11,-0.97 -0.25,-1.56 -0.1,-0.31 -0.1,-0.34 -0.1,-0.42 0,-0.06 0.03,-0.49 0.6,-0.49 0.48,0 0.51,0.18 0.65,0.77 l 1.92,7.64 c 0.1,0.41 0.1,0.48 0.1,0.52 0,0.34 -0.27,0.48 -0.6,0.48 -0.45,0 -0.48,-0.17 -0.68,-0.91 -0.74,-2.71 -1.78,-3.17 -4.74,-3.17 h -3.67 l 2.09,8.3 c 0.28,1.08 0.32,1.19 1.78,1.19 h 5.68 c 4.58,0 5.72,-0.94 5.72,-4.05 0,-0.91 -0.14,-1.95 -0.14,-2.13 0,-0.28 0.1,-0.59 0.59,-0.59 0.53,0 0.56,0.31 0.62,0.91 l 0.63,6.06 c 0.11,1.05 -0.13,1.05 -1,1.05 h -19.17 c -0.69,0 -1.11,0 -1.11,-0.77 0,-0.48 0.37,-0.48 1.15,-0.48 0.55,0 0.69,0 1.32,-0.08 0.7,-0.06 0.76,-0.13 0.76,-0.49 0,-0.23 -0.09,-0.59 -0.14,-0.76 l -4.56,-18.22 c -0.35,-1.36 -0.38,-1.61 -3.09,-1.61 -0.63,0 -1.05,0 -1.05,-0.77 0,-0.48 0.42,-0.48 1.05,-0.48 h 19.68 c 0.86,0 0.91,0 1.19,0.63 z"
           id="path2716" /><path
           style="fill:#000000;stroke-width:0"
           inkscape:connector-curvature="0"
           d="m 540.5,411.34 v 1.1 h -3.13 v 10.97 c 0,0.59 -0.02,0.73 -0.67,0.73 -0.5,0 -0.52,-0.02 -0.8,-0.37 l -9.22,-11.33 v -1.1 h 8.3 l 0.2,1.1 h -7.33 l 7.33,9.01 v -9.01 l -0.2,-1.1 v -1.93 c 0,-0.79 0,-1.03 -2.16,-1.03 h -0.87 v -1.1 c 1.17,0.05 2.78,0.1 4.23,0.1 1.44,0 3.04,-0.05 4.24,-0.1 v 1.1 h -0.88 c -2.17,0 -2.17,0.24 -2.17,1.03 v 1.93 z"
           id="path2718" /></g>    </g>
    <g
       id="g2866"
       transform="matrix(0.38932975,0,0,0.38932975,111.91401,29.301078)">
      <g
         word-spacing="normal"
         letter-spacing="normal"
         font-size-adjust="none"
         font-stretch="normal"
         font-weight="normal"
         font-variant="normal"
         font-style="normal"
         stroke-miterlimit="10.433"
         xml:space="preserve"
         transform="matrix(0.3,0,0,-0.3,-52.5,222.75)"
         id="g2864"
         style="font-style:normal;font-variant:normal;font-weight:normal;font-stretch:normal;letter-spacing:normal;word-spacing:normal;text-anchor:start;fill:none;fill-opacity:1;fill-rule:evenodd;stroke:#000000;stroke-linecap:butt;stroke-linejoin:miter;stroke-miterlimit:10.43299961;stroke-dasharray:none;stroke-dashoffset:0;stroke-opacity:1"><path
           id="path2858"
           d="m 465.68,406.2 0.25,2.73 c 5.68,13.91 6.73,22.58 7.43,28.55 3.33,0 16.08,0 16.08,-10.95 0,-9.77 -8.76,-17.6 -20.81,-17.6 h -2.7 l -0.25,-2.73 c 11.61,0 28,8.87 28,22.47 0,4.44 -2.08,7.22 -4.54,8.76 -4.28,2.8 -8.85,2.8 -13.59,2.8 -4.28,0 -7.23,0 -11.41,-1.8 -6.62,-2.93 -7.57,-7.07 -7.57,-7.47 0,-0.29 0.2,-0.4 0.5,-0.4 0.79,0 1.93,0.7 2.34,0.95 1.05,0.69 1.19,1 1.48,1.94 0.71,2 2.1,3.73 8.38,4.03 -0.8,-10.41 -3.34,-19.92 -6.83,-28.64 -1.84,-0.64 -3.03,-1.8 -3.03,-2.3 0,-0.29 0.05,-0.34 1.14,-0.34 z"
           inkscape:connector-curvature="0"
           style="fill:#000000;stroke-width:0" /><path
           id="path2860"
           d="m 521.52,405.37 0.01,0.02 0.01,0.02 0.01,0.02 v 0.02 l 0.01,0.02 0.01,0.02 0.01,0.01 0.01,0.02 0.01,0.02 v 0.02 l 0.02,0.03 0.01,0.03 0.01,0.03 0.01,0.03 0.01,0.03 0.01,0.02 0.01,0.03 0.01,0.02 0.01,0.02 v 0.02 l 0.01,0.02 v 0.02 l 0.01,0.01 v 0.02 0.01 l 0.01,0.01 v 0.01 0.02 0 0.01 0.01 0.01 0 0.01 0 0.01 0 c 0,0.22 -0.14,0.5 -0.59,0.5 -0.08,0 -0.25,0 -0.39,-0.14 -0.06,-0.08 -0.11,-0.11 -0.52,-1.01 -2.26,-5.02 -4.04,-6.77 -9.73,-6.77 h -5.92 c -1.08,0 -1.11,0.05 -1.11,0.36 0,0.03 0,0.2 0.14,0.72 l 2.33,9.34 h 3.9 c 2.75,0 3.18,-0.45 3.18,-1.61 0,-0.37 -0.11,-0.97 -0.25,-1.56 -0.1,-0.31 -0.1,-0.34 -0.1,-0.42 0,-0.06 0.03,-0.49 0.6,-0.49 0.48,0 0.51,0.18 0.65,0.77 l 1.92,7.64 c 0.1,0.41 0.1,0.48 0.1,0.52 0,0.34 -0.27,0.48 -0.6,0.48 -0.45,0 -0.48,-0.17 -0.68,-0.91 -0.74,-2.71 -1.78,-3.17 -4.74,-3.17 h -3.67 l 2.09,8.3 c 0.28,1.08 0.32,1.19 1.78,1.19 h 5.68 c 4.58,0 5.72,-0.94 5.72,-4.05 0,-0.91 -0.14,-1.95 -0.14,-2.13 0,-0.28 0.1,-0.59 0.59,-0.59 0.53,0 0.56,0.31 0.62,0.91 l 0.63,6.06 c 0.11,1.05 -0.13,1.05 -1,1.05 h -19.17 c -0.69,0 -1.11,0 -1.11,-0.77 0,-0.48 0.37,-0.48 1.15,-0.48 0.55,0 0.69,0 1.32,-0.08 0.7,-0.06 0.76,-0.13 0.76,-0.49 0,-0.23 -0.09,-0.59 -0.14,-0.76 l -4.56,-18.22 c -0.35,-1.36 -0.38,-1.61 -3.09,-1.61 -0.63,0 -1.05,0 -1.05,-0.77 0,-0.48 0.42,-0.48 1.05,-0.48 h 19.68 c 0.86,0 0.91,0 1.19,0.63 z"
           inkscape:connector-curvature="0"
           style="fill:#000000;stroke-width:0" /><path
           id="path2862"
           d="m 530,421 0.12,-0.03 0.12,-0.02 0.12,-0.03 0.12,-0.02 0.12,-0.02 0.12,-0.02 0.11,-0.02 0.11,-0.02 0.11,-0.02 0.11,-0.01 0.11,-0.01 0.1,-0.02 0.1,-0.01 0.1,-0.01 0.09,-0.01 h 0.09 l 0.09,-0.01 0.09,-0.01 h 0.08 l 0.08,-0.01 h 0.07 0.07 l 0.07,-0.01 h 0.06 0.06 0.06 0.05 0.05 0.04 0.04 0.03 0.03 c 1.7,0 2.93,0.5 3.59,0.84 0.59,0.3 2.29,1.38 2.29,1.92 0,0.38 -0.28,0.43 -0.35,0.43 -0.05,0 -0.1,0 -0.38,-0.13 -0.94,-0.33 -2.48,-0.67 -4.12,-0.67 -1.43,0 -2.8,0.25 -4.11,0.69 -0.29,0.11 -0.33,0.11 -0.38,0.11 -0.36,0 -0.36,-0.3 -0.36,-0.71 v -7.47 c 0,-0.42 0,-0.75 0.49,-0.75 0.26,0 0.29,0.05 0.51,0.33 0.95,1.1 2.27,1.64 3.97,1.64 1.44,0 2.23,-0.84 2.58,-1.37 0.58,-0.85 0.7,-1.97 0.7,-3.16 0,-1.05 -0.09,-2.44 -1.08,-3.42 -1.1,-1.14 -2.53,-1.22 -3.07,-1.22 -1.63,0 -3.44,0.7 -4.22,2.17 1.04,0.08 1.4,0.83 1.4,1.39 0,0.8 -0.61,1.41 -1.4,1.41 -0.55,0 -1.39,-0.33 -1.39,-1.49 0,-2.43 2.39,-4.5 5.65,-4.5 3.72,0 6.75,2.49 6.75,5.58 0,2.81 -2.42,5.44 -5.87,5.44 -1.58,0 -2.85,-0.41 -3.92,-1.23 z"
           inkscape:connector-curvature="0"
           style="fill:#000000;stroke-width:0" /></g>    </g>
    <ellipse
       ry="21.422632"
       rx="22.895439"
       cy="92.013954"
       cx="135.61847"
       id="path3100"
       style="opacity:1;fill:#86d8b4;fill-opacity:0.48235294;stroke:#000000;stroke-width:0.18774323;stroke-linecap:round;stroke-linejoin:round;stroke-miterlimit:4;stroke-dasharray:none;stroke-dashoffset:0;stroke-opacity:1" />
    <g
       id="g3155"
       transform="matrix(0.70846504,0,0,0.70846504,70.413335,25.667048)">
      <g
         word-spacing="normal"
         letter-spacing="normal"
         font-size-adjust="none"
         font-stretch="normal"
         font-weight="normal"
         font-variant="normal"
         font-style="normal"
         stroke-miterlimit="10.433"
         xml:space="preserve"
         transform="matrix(0.3,0,0,-0.3,-52.5,222.75)"
         id="g3153"
         style="font-style:normal;font-variant:normal;font-weight:normal;font-stretch:normal;letter-spacing:normal;word-spacing:normal;text-anchor:start;fill:none;fill-opacity:1;fill-rule:evenodd;stroke:#000000;stroke-linecap:butt;stroke-linejoin:miter;stroke-miterlimit:10.43299961;stroke-dasharray:none;stroke-dashoffset:0;stroke-opacity:1"><path
           id="path3149"
           d="m 465.68,406.2 0.25,2.73 c 5.68,13.91 6.73,22.58 7.43,28.55 3.33,0 16.08,0 16.08,-10.95 0,-9.77 -8.76,-17.6 -20.81,-17.6 h -2.7 l -0.25,-2.73 c 11.61,0 28,8.87 28,22.47 0,4.44 -2.08,7.22 -4.54,8.76 -4.28,2.8 -8.85,2.8 -13.59,2.8 -4.28,0 -7.23,0 -11.41,-1.8 -6.62,-2.93 -7.57,-7.07 -7.57,-7.47 0,-0.29 0.2,-0.4 0.5,-0.4 0.79,0 1.93,0.7 2.34,0.95 1.05,0.69 1.19,1 1.48,1.94 0.71,2 2.1,3.73 8.38,4.03 -0.8,-10.41 -3.34,-19.92 -6.83,-28.64 -1.84,-0.64 -3.03,-1.8 -3.03,-2.3 0,-0.29 0.05,-0.34 1.14,-0.34 z"
           inkscape:connector-curvature="0"
           style="fill:#000000;stroke-width:0" /><path
           id="path3151"
           d="m 523.3,422.81 v 0.02 0.01 l -0.01,0.02 v 0.02 0.02 l -0.01,0.01 v 0.02 l -0.01,0.02 v 0.02 l -0.01,0.02 -0.01,0.02 -0.01,0.02 -0.01,0.02 -0.01,0.01 -0.01,0.02 -0.01,0.02 -0.01,0.02 -0.02,0.01 -0.01,0.02 -0.02,0.01 -0.02,0.02 -0.02,0.01 -0.02,0.01 -0.02,0.02 -0.02,0.01 h -0.03 l -0.02,0.01 -0.03,0.01 h -0.01 -0.02 l -0.01,0.01 h -0.01 -0.02 -0.01 -0.02 -0.02 c -0.25,0 -0.31,-0.08 -0.62,-0.42 l -2.55,-2.69 c -0.31,0.42 -2.26,3.11 -6.55,3.11 -8.46,0 -16.76,-7.5 -16.76,-15.37 0,-5.68 4.47,-9.83 10.7,-9.83 1.88,0 5.22,0.39 8.82,3.42 2.74,2.33 3.51,5.36 3.51,5.64 0,0.45 -0.42,0.45 -0.59,0.45 -0.46,0 -0.52,-0.17 -0.63,-0.54 -1.42,-4.78 -6.31,-7.71 -10.51,-7.71 -3.71,0 -7.82,1.99 -7.82,7.49 0,1.01 0.25,6.51 4.25,10.9 2.41,2.69 6.07,4.29 9.38,4.29 4.05,0 6.41,-2.93 6.41,-6.83 0,-0.97 -0.1,-1.22 -0.1,-1.42 0,-0.46 0.45,-0.46 0.63,-0.46 0.56,0 0.56,0.11 0.73,0.77 z"
           inkscape:connector-curvature="0"
           style="fill:#000000;stroke-width:0" /></g>    </g>
  </g>
</svg>
